<?xml version="1.0" standalone="no"?><!DOCTYPE svg PUBLIC "-//W3C//DTD SVG 1.1//EN" "http://www.w3.org/Graphics/SVG/1.1/DTD/svg11.dtd"><svg t="1669725536952" class="icon" viewBox="0 0 1024 1024" version="1.1" xmlns="http://www.w3.org/2000/svg" p-id="1916" xmlns:xlink="http://www.w3.org/1999/xlink" width="200" height="200"><path d="M756.2752 945.2032H270.0288c-107.264 0-194.2016-86.9376-194.2016-194.2016V264.7552c0-107.264 86.9376-194.2016 194.2016-194.2016h486.2464c107.264 0 194.2016 86.9376 194.2016 194.2016v486.2464c0.0512 107.264-86.9376 194.2016-194.2016 194.2016z" fill="#6FA7FF" p-id="1917" data-spm-anchor-id="a313x.7781069.0.i1" class="selected"></path><path d="M643.0208 853.76H383.3344c-84.0192 0-152.4224-68.352-152.4224-152.4224V314.0608c0-84.0192 68.352-152.4224 152.4224-152.4224h259.7376c84.0192 0 152.4224 68.352 152.4224 152.4224v249.6512c0 14.1312-11.4688 25.6-25.6 25.6s-25.6-11.4688-25.6-25.6V314.0608c0-55.808-45.4144-101.2224-101.2224-101.2224H383.3344c-55.808 0-101.2224 45.4144-101.2224 101.2224v387.2768c0 55.808 45.4144 101.2224 101.2224 101.2224h259.7376c55.808 0 101.2224-45.4144 101.2224-101.2224 0-14.1312 11.4688-25.6 25.6-25.6s25.6 11.4688 25.6 25.6c-0.0512 84.0704-68.4032 152.4224-152.4736 152.4224z" fill="#F7F8F8" p-id="1918"></path><path d="M614.5024 699.8016H411.8528c-41.5744 0-75.4176-33.8432-75.4176-75.4176V331.6736c0-41.5744 33.8432-75.4176 75.4176-75.4176h202.6496c41.5744 0 75.4176 33.8432 75.4176 75.4176v292.7104c0 41.6256-33.8432 75.4176-75.4176 75.4176zM411.8528 307.456c-13.3632 0-24.2176 10.8544-24.2176 24.2176v292.7104c0 13.3632 10.8544 24.2176 24.2176 24.2176h202.6496c13.3632 0 24.2176-10.8544 24.2176-24.2176V331.6736c0-13.3632-10.8544-24.2176-24.2176-24.2176H411.8528zM565.6576 774.2976H460.6464c-14.1312 0-25.6-11.4688-25.6-25.6s11.4688-25.6 25.6-25.6h105.0112c14.1312 0 25.6 11.4688 25.6 25.6s-11.4688 25.6-25.6 25.6z" fill="#F7F8F8" p-id="1919"></path></svg>