<?xml version="1.0" standalone="no"?><!DOCTYPE svg PUBLIC "-//W3C//DTD SVG 1.1//EN" "http://www.w3.org/Graphics/SVG/1.1/DTD/svg11.dtd"><svg t="1669724302850" class="icon" viewBox="0 0 1024 1024" version="1.1" xmlns="http://www.w3.org/2000/svg" p-id="1162" data-spm-anchor-id="a313x.7781069.0.i1" xmlns:xlink="http://www.w3.org/1999/xlink" width="200" height="200"><path d="M776.192 857.0368H254.5152c-74.5472 0-134.9632-60.416-134.9632-134.9632V301.4656c0-74.5472 60.416-134.9632 134.9632-134.9632H776.192c74.5472 0 134.9632 60.416 134.9632 134.9632v420.6592c0 74.496-60.416 134.912-134.9632 134.912z" fill="#FF5F5F" p-id="1163"></path><path d="M776.192 872.3968H254.5152c-82.8928 0-150.3232-67.4304-150.3232-150.3232V301.4656c0-82.8928 67.4304-150.3232 150.3232-150.3232H776.192c82.8928 0 150.3232 67.4304 150.3232 150.3232v420.6592c0 82.8416-67.4304 150.272-150.3232 150.272zM254.5152 181.8624c-65.9456 0-119.6032 53.6576-119.6032 119.6032v420.6592c0 65.9456 53.6576 119.6032 119.6032 119.6032H776.192c65.9456 0 119.6032-53.6576 119.6032-119.6032V301.4656c0-65.9456-53.6576-119.6032-119.6032-119.6032H254.5152z" fill="#707070" p-id="1164" data-spm-anchor-id="a313x.7781069.0.i2" class="selected"></path><path d="M453.2224 495.9744c27.648-18.944 45.824-50.7392 45.824-86.6816 0-57.9584-47.1552-105.0624-105.0624-105.0624s-105.0624 47.1552-105.0624 105.0624c0 35.84 18.0736 67.5328 45.568 86.4768-52.8896 22.9376-90.0096 75.6736-90.0096 136.9088v44.5952c0 22.3744 18.2272 40.6016 40.6016 40.6016h217.1392c22.3744 0 40.6016-18.2272 40.6016-40.6016v-44.5952c-0.0512-61.0816-36.9152-113.664-89.6-136.704zM319.6416 409.2416c0-41.0112 33.3312-74.3424 74.3424-74.3424s74.3424 33.3312 74.3424 74.3424c0 40.5504-32.6656 73.5744-73.0112 74.2912-0.5632 0-1.1264-0.0512-1.6896-0.0512-0.4096 0-0.8192 0.0512-1.1776 0.0512-40.2944-0.8704-72.8064-33.792-72.8064-74.2912z m192.4096 268.032c0 5.4784-4.4544 9.8816-9.8816 9.8816h-217.088c-5.4784 0-9.8816-4.4544-9.8816-9.8816v-44.5952c0-64.9216 52.48-117.76 117.248-118.4256 0.512 0 1.024 0.1024 1.5872 0.1024 0.4608 0 0.8704-0.0512 1.3312-0.0512 64.512 0.9216 116.736 53.6576 116.736 118.4256v44.544zM810.5984 369.5104c0-8.4992-6.8608-15.36-15.36-15.36H599.04c-8.4992 0-15.36 6.8608-15.36 15.36s6.8608 15.36 15.36 15.36h196.1984c8.4992 0 15.36-6.912 15.36-15.36zM795.2384 495.4624h-174.1312c-8.4992 0-15.36 6.8608-15.36 15.36s6.8608 15.36 15.36 15.36h174.1312c8.4992 0 15.36-6.8608 15.36-15.36s-6.8608-15.36-15.36-15.36zM795.2384 641.8944H653.312c-8.4992 0-15.36 6.8608-15.36 15.36s6.8608 15.36 15.36 15.36h141.9264c8.4992 0 15.36-6.8608 15.36-15.36 0-8.448-6.8608-15.36-15.36-15.36z" fill="#FFFFFF" p-id="1165"></path></svg>